<mxfile host="app.diagrams.net" modified="2023-12-13T20:58:45.049Z" agent="Mozilla/5.0 (Windows NT 10.0; Win64; x64) AppleWebKit/537.36 (KHTML, like Gecko) Chrome/120.0.0.0 Safari/537.36" etag="thpt37Wg26CrMMZncVRx" version="22.1.8" type="github">
  <diagram name="Страница — 1" id="Ipm3lWXLyAhJRRHfVkjc">
    <mxGraphModel dx="1050" dy="565" grid="1" gridSize="10" guides="1" tooltips="1" connect="1" arrows="1" fold="1" page="1" pageScale="1" pageWidth="827" pageHeight="1169" math="0" shadow="0">
      <root>
        <mxCell id="0" />
        <mxCell id="1" parent="0" />
        <mxCell id="dkb06LC9kJ7bP2gEYbqL-3" value="" style="edgeStyle=orthogonalEdgeStyle;rounded=0;orthogonalLoop=1;jettySize=auto;html=1;" parent="1" source="dkb06LC9kJ7bP2gEYbqL-1" target="dkb06LC9kJ7bP2gEYbqL-2" edge="1">
          <mxGeometry relative="1" as="geometry" />
        </mxCell>
        <mxCell id="dkb06LC9kJ7bP2gEYbqL-1" value="Beginning" style="ellipse;whiteSpace=wrap;html=1;" parent="1" vertex="1">
          <mxGeometry x="350" y="40" width="120" height="40" as="geometry" />
        </mxCell>
        <mxCell id="dkb06LC9kJ7bP2gEYbqL-5" value="" style="edgeStyle=orthogonalEdgeStyle;rounded=0;orthogonalLoop=1;jettySize=auto;html=1;" parent="1" source="dkb06LC9kJ7bP2gEYbqL-2" target="dkb06LC9kJ7bP2gEYbqL-4" edge="1">
          <mxGeometry relative="1" as="geometry" />
        </mxCell>
        <mxCell id="dkb06LC9kJ7bP2gEYbqL-2" value="int n, number, sum=0, i=0" style="rounded=0;whiteSpace=wrap;html=1;" parent="1" vertex="1">
          <mxGeometry x="350" y="100" width="120" height="40" as="geometry" />
        </mxCell>
        <mxCell id="UDi1VYqtjq6vkM6t31ps-3" value="" style="edgeStyle=orthogonalEdgeStyle;rounded=0;orthogonalLoop=1;jettySize=auto;html=1;" edge="1" parent="1" source="dkb06LC9kJ7bP2gEYbqL-4" target="UDi1VYqtjq6vkM6t31ps-1">
          <mxGeometry relative="1" as="geometry" />
        </mxCell>
        <mxCell id="dkb06LC9kJ7bP2gEYbqL-4" value="Input n" style="shape=parallelogram;perimeter=parallelogramPerimeter;whiteSpace=wrap;html=1;fixedSize=1;" parent="1" vertex="1">
          <mxGeometry x="360" y="170" width="100" height="40" as="geometry" />
        </mxCell>
        <mxCell id="dkb06LC9kJ7bP2gEYbqL-6" value="while(i&amp;lt;n)" style="shape=hexagon;perimeter=hexagonPerimeter2;whiteSpace=wrap;html=1;fixedSize=1;" parent="1" vertex="1">
          <mxGeometry x="350" y="300" width="120" height="40" as="geometry" />
        </mxCell>
        <mxCell id="UDi1VYqtjq6vkM6t31ps-5" value="" style="edgeStyle=orthogonalEdgeStyle;rounded=0;orthogonalLoop=1;jettySize=auto;html=1;" edge="1" parent="1" source="dkb06LC9kJ7bP2gEYbqL-8" target="UDi1VYqtjq6vkM6t31ps-2">
          <mxGeometry relative="1" as="geometry" />
        </mxCell>
        <mxCell id="dkb06LC9kJ7bP2gEYbqL-8" value="Input number" style="shape=parallelogram;perimeter=parallelogramPerimeter;whiteSpace=wrap;html=1;fixedSize=1;" parent="1" vertex="1">
          <mxGeometry x="460" y="232" width="100" height="40" as="geometry" />
        </mxCell>
        <mxCell id="dkb06LC9kJ7bP2gEYbqL-14" value="" style="endArrow=classic;html=1;rounded=0;exitX=1;exitY=0.5;exitDx=0;exitDy=0;entryX=0;entryY=0.5;entryDx=0;entryDy=0;" parent="1" source="UDi1VYqtjq6vkM6t31ps-2" edge="1" target="UDi1VYqtjq6vkM6t31ps-7">
          <mxGeometry width="50" height="50" relative="1" as="geometry">
            <mxPoint x="390" y="411" as="sourcePoint" />
            <mxPoint x="690" y="255" as="targetPoint" />
          </mxGeometry>
        </mxCell>
        <mxCell id="dkb06LC9kJ7bP2gEYbqL-15" value="" style="endArrow=classic;html=1;rounded=0;entryX=1;entryY=0.5;entryDx=0;entryDy=0;" parent="1" edge="1">
          <mxGeometry width="50" height="50" relative="1" as="geometry">
            <mxPoint x="747" y="320" as="sourcePoint" />
            <mxPoint x="467" y="320" as="targetPoint" />
          </mxGeometry>
        </mxCell>
        <mxCell id="dkb06LC9kJ7bP2gEYbqL-16" value="" style="endArrow=classic;html=1;rounded=0;exitX=0.5;exitY=1;exitDx=0;exitDy=0;" parent="1" source="UDi1VYqtjq6vkM6t31ps-2" edge="1">
          <mxGeometry width="50" height="50" relative="1" as="geometry">
            <mxPoint x="395" y="411" as="sourcePoint" />
            <mxPoint x="625" y="320" as="targetPoint" />
          </mxGeometry>
        </mxCell>
        <mxCell id="dkb06LC9kJ7bP2gEYbqL-19" value="" style="edgeStyle=orthogonalEdgeStyle;rounded=0;orthogonalLoop=1;jettySize=auto;html=1;" parent="1" source="dkb06LC9kJ7bP2gEYbqL-17" target="dkb06LC9kJ7bP2gEYbqL-18" edge="1">
          <mxGeometry relative="1" as="geometry" />
        </mxCell>
        <mxCell id="dkb06LC9kJ7bP2gEYbqL-17" value="Output sum" style="shape=parallelogram;perimeter=parallelogramPerimeter;whiteSpace=wrap;html=1;fixedSize=1;" parent="1" vertex="1">
          <mxGeometry x="360" y="370" width="100" height="40" as="geometry" />
        </mxCell>
        <mxCell id="dkb06LC9kJ7bP2gEYbqL-18" value="End" style="ellipse;whiteSpace=wrap;html=1;" parent="1" vertex="1">
          <mxGeometry x="350" y="430" width="120" height="40" as="geometry" />
        </mxCell>
        <mxCell id="dkb06LC9kJ7bP2gEYbqL-23" value="" style="endArrow=classic;html=1;rounded=0;entryX=0.5;entryY=0;entryDx=0;entryDy=0;exitX=0.5;exitY=1;exitDx=0;exitDy=0;" parent="1" target="dkb06LC9kJ7bP2gEYbqL-17" edge="1" source="dkb06LC9kJ7bP2gEYbqL-6">
          <mxGeometry width="50" height="50" relative="1" as="geometry">
            <mxPoint x="410" y="471" as="sourcePoint" />
            <mxPoint x="440" y="301" as="targetPoint" />
          </mxGeometry>
        </mxCell>
        <mxCell id="dkb06LC9kJ7bP2gEYbqL-24" value="True" style="text;html=1;strokeColor=none;fillColor=none;align=center;verticalAlign=middle;whiteSpace=wrap;rounded=0;" parent="1" vertex="1">
          <mxGeometry x="320" y="280" width="60" height="30" as="geometry" />
        </mxCell>
        <mxCell id="dkb06LC9kJ7bP2gEYbqL-26" value="False" style="text;html=1;strokeColor=none;fillColor=none;align=center;verticalAlign=middle;whiteSpace=wrap;rounded=0;" parent="1" vertex="1">
          <mxGeometry x="410" y="340" width="60" height="30" as="geometry" />
        </mxCell>
        <mxCell id="UDi1VYqtjq6vkM6t31ps-4" value="" style="edgeStyle=orthogonalEdgeStyle;rounded=0;orthogonalLoop=1;jettySize=auto;html=1;" edge="1" parent="1" source="UDi1VYqtjq6vkM6t31ps-1" target="dkb06LC9kJ7bP2gEYbqL-8">
          <mxGeometry relative="1" as="geometry" />
        </mxCell>
        <mxCell id="UDi1VYqtjq6vkM6t31ps-1" value="i=i+1" style="rounded=0;whiteSpace=wrap;html=1;" vertex="1" parent="1">
          <mxGeometry x="385" y="237" width="50" height="30" as="geometry" />
        </mxCell>
        <mxCell id="UDi1VYqtjq6vkM6t31ps-2" value="number%2!=0" style="rhombus;whiteSpace=wrap;html=1;" vertex="1" parent="1">
          <mxGeometry x="580" y="207" width="90" height="90" as="geometry" />
        </mxCell>
        <mxCell id="UDi1VYqtjq6vkM6t31ps-7" value="sum=sum+number" style="rounded=0;whiteSpace=wrap;html=1;" vertex="1" parent="1">
          <mxGeometry x="690" y="232" width="110" height="40" as="geometry" />
        </mxCell>
        <mxCell id="UDi1VYqtjq6vkM6t31ps-8" value="" style="endArrow=none;html=1;rounded=0;entryX=0.5;entryY=1;entryDx=0;entryDy=0;" edge="1" parent="1" target="UDi1VYqtjq6vkM6t31ps-7">
          <mxGeometry width="50" height="50" relative="1" as="geometry">
            <mxPoint x="745" y="320" as="sourcePoint" />
            <mxPoint x="320" y="361" as="targetPoint" />
          </mxGeometry>
        </mxCell>
        <mxCell id="UDi1VYqtjq6vkM6t31ps-9" value="" style="endArrow=classic;html=1;rounded=0;edgeStyle=orthogonalEdgeStyle;entryX=0;entryY=0.5;entryDx=0;entryDy=0;" edge="1" parent="1">
          <mxGeometry width="50" height="50" relative="1" as="geometry">
            <mxPoint x="340" y="250" as="sourcePoint" />
            <mxPoint x="385" y="250" as="targetPoint" />
          </mxGeometry>
        </mxCell>
        <mxCell id="UDi1VYqtjq6vkM6t31ps-10" value="" style="endArrow=none;html=1;rounded=0;edgeStyle=orthogonalEdgeStyle;entryX=0;entryY=0.5;entryDx=0;entryDy=0;" edge="1" parent="1" target="dkb06LC9kJ7bP2gEYbqL-6">
          <mxGeometry width="50" height="50" relative="1" as="geometry">
            <mxPoint x="340" y="250" as="sourcePoint" />
            <mxPoint x="340" y="320" as="targetPoint" />
            <Array as="points">
              <mxPoint x="330" y="250" />
              <mxPoint x="330" y="320" />
            </Array>
          </mxGeometry>
        </mxCell>
        <mxCell id="UDi1VYqtjq6vkM6t31ps-12" value="True" style="text;html=1;strokeColor=none;fillColor=none;align=center;verticalAlign=middle;whiteSpace=wrap;rounded=0;" vertex="1" parent="1">
          <mxGeometry x="620" y="290" width="60" height="30" as="geometry" />
        </mxCell>
        <mxCell id="UDi1VYqtjq6vkM6t31ps-13" value="False" style="text;html=1;strokeColor=none;fillColor=none;align=center;verticalAlign=middle;whiteSpace=wrap;rounded=0;" vertex="1" parent="1">
          <mxGeometry x="640" y="210" width="60" height="30" as="geometry" />
        </mxCell>
      </root>
    </mxGraphModel>
  </diagram>
</mxfile>
